<?xml version="1.0" encoding="UTF-8" standalone="no"?>
<svg width="24px" height="24px" viewBox="0 0 24 24" version="1.1" xmlns="http://www.w3.org/2000/svg" xmlns:xlink="http://www.w3.org/1999/xlink">
    <!-- Generator: Sketch 39.1 (31720) - http://www.bohemiancoding.com/sketch -->
    <title>Close</title>
    <desc>Created with Sketch.</desc>
    <defs></defs>
    <g id="Version-3" stroke="none" stroke-width="1" fill="none" fill-rule="evenodd">
        <g id="Menu" transform="translate(-276.000000, -20.000000)" fill="#758098">
            <g id="Masthead" transform="translate(2.000000, 0.000000)">
                <path d="M286,29.1715729 L277.515951,20.6875242 C276.729308,19.9008809 275.46734,19.9052429 274.686292,20.6862915 C273.899798,21.4727854 273.905795,22.7342219 274.687524,23.5159513 L283.171573,32 L274.687524,40.4840487 C273.900881,41.2706919 273.905243,42.5326599 274.686292,43.3137085 C275.472785,44.1002024 276.734222,44.0942052 277.515951,43.3124758 L286,34.8284271 L294.484049,43.3124758 C295.270692,44.0991191 296.53266,44.0947571 297.313708,43.3137085 C298.100202,42.5272146 298.094205,41.2657781 297.312476,40.4840487 L288.828427,32 L297.312476,23.5159513 C298.099119,22.7293081 298.094757,21.4673401 297.313708,20.6862915 C296.527215,19.8997976 295.265778,19.9057948 294.484049,20.6875242 L286,29.1715729 Z" id="Close"></path>
            </g>
        </g>
    </g>
</svg>