<?xml version="1.0" encoding="UTF-8" standalone="no"?>
<svg width="44px" height="41px" viewBox="0 0 44 41" version="1.1" xmlns="http://www.w3.org/2000/svg" xmlns:xlink="http://www.w3.org/1999/xlink">
    <!-- Generator: Sketch 39.1 (31720) - http://www.bohemiancoding.com/sketch -->
    <title>Icon</title>
    <desc>Created with Sketch.</desc>
    <defs></defs>
    <g id="Version-3" stroke="none" stroke-width="1" fill="none" fill-rule="evenodd">
        <g id="Button-(large-screen)" transform="translate(-436.000000, -589.000000)" fill="#E0E4EB">
            <g id="Output" transform="translate(300.000000, 212.000000)">
                <g id="Outline" transform="translate(0.000000, 315.000000)">
                    <g id="Output" transform="translate(0.000000, 50.000000)">
                        <g id="Tabs">
                            <g id="Desktop" transform="translate(126.000000, 0.000000)">
                                <path d="M11.5924759,12 C10.6898759,12 10,12.7869228 10,13.7054981 L10,43.295998 C10,44.2130772 10.6898759,45 11.5924759,45 L52.3750246,45 C53.2776246,45 54,44.2160693 54,43.295998 L54,13.7054981 C53.9985227,12.7869228 53.2776246,12 52.3750246,12 L11.5924759,12 Z M29,50 L19,50 L19,53 L45,53 L45,50 L35,50 L35,45 L29,45 L29,50 Z M50,41 L14,41 L14,16 L50,16 L50,41 Z" id="Icon"></path>
                            </g>
                        </g>
                    </g>
                </g>
            </g>
        </g>
    </g>
</svg>