<?xml version="1.0" encoding="UTF-8" standalone="no"?>
<svg width="18px" height="29px" viewBox="0 0 18 29" version="1.1" xmlns="http://www.w3.org/2000/svg" xmlns:xlink="http://www.w3.org/1999/xlink">
    <!-- Generator: Sketch 39.1 (31720) - http://www.bohemiancoding.com/sketch -->
    <title>Icon</title>
    <desc>Created with Sketch.</desc>
    <defs></defs>
    <g id="Version-3" stroke="none" stroke-width="1" fill="none" fill-rule="evenodd">
        <g id="Button-(large-screen)" transform="translate(-323.000000, -595.000000)" fill="#E0E3EA">
            <g id="Output" transform="translate(300.000000, 212.000000)">
                <g id="Outline" transform="translate(0.000000, 315.000000)">
                    <g id="Output" transform="translate(0.000000, 50.000000)">
                        <g id="Tabs">
                            <g id="Phone">
                                <path d="M24.1193089,18 C23.501109,18 23,18.5090377 23,19.1392749 L23,45.8617351 C23,46.4889423 23.501109,47 24.1193089,47 L39.8796988,47 C40.4978987,47 40.9980154,46.4889423 40.9980154,45.8617351 L40.9980154,19.1392749 C41,18.5090377 40.4978987,18 39.8796988,18 L24.1193089,18 Z M32.0030166,45 C30.8974359,45 30,44.1040724 30,42.9984917 C30,41.8959276 30.8974359,41 32.0030166,41 C33.1085973,41 34.0045249,41.8959276 34.0045249,42.9984917 C34.0045249,44.1040724 33.1085973,45 32.0030166,45 L32.0030166,45 Z M38,39 L26,39 L26,21 L38,21 L38,39 L38,39 Z" id="Icon"></path>
                            </g>
                        </g>
                    </g>
                </g>
            </g>
        </g>
    </g>
</svg>